<?xml version="1.0" encoding="UTF-8"?>
<svg width="632px" height="640px" viewBox="0 0 632 640" version="1.1" xmlns="http://www.w3.org/2000/svg" xmlns:xlink="http://www.w3.org/1999/xlink">
    <!-- Generator: Sketch 49.1 (51147) - http://www.bohemiancoding.com/sketch -->
    <title>bhack-background</title>
    <desc>Created with Sketch.</desc>
    <defs>
        <path d="M367,608 C532.685425,608 667,471.894564 667,304 C667,136.105436 532.685425,0 367,0 C340.988534,0 315.750261,3.35456728 291.683507,9.66006224 C162.452085,43.5187252 67,162.463721 67,304 C67,471.894564 201.314575,608 367,608 Z" id="path-1"></path>
        <filter x="-6.7%" y="-6.6%" width="113.4%" height="113.2%" filterUnits="objectBoundingBox" id="filter-2">
            <feMorphology radius="7" operator="erode" in="SourceAlpha" result="shadowSpreadInner1"></feMorphology>
            <feGaussianBlur stdDeviation="21.5" in="shadowSpreadInner1" result="shadowBlurInner1"></feGaussianBlur>
            <feOffset dx="0" dy="0" in="shadowBlurInner1" result="shadowOffsetInner1"></feOffset>
            <feComposite in="shadowOffsetInner1" in2="SourceAlpha" operator="arithmetic" k2="-1" k3="1" result="shadowInnerInner1"></feComposite>
            <feColorMatrix values="0 0 0 0 0.410391569   0 0 0 0 0.0863670185   0 0 0 0 0.0312012583  0 0 0 1 0" type="matrix" in="shadowInnerInner1"></feColorMatrix>
        </filter>
        <path d="M198,40 C192.477153,40 188,31.045695 188,20 C188,8.954305 192.477153,0 198,0 C203.522847,0 208,8.954305 208,20 C208,31.045695 203.522847,40 198,40 Z M317.5977,102.964021 C314.122059,98.6719621 318.263298,89.5574344 326.847415,82.6061533 C335.431532,75.6548722 345.207898,73.4991465 348.683538,77.7912051 C352.159179,82.0832637 348.01794,91.1977914 339.433823,98.1490725 C330.849706,105.100354 321.07334,107.256079 317.5977,102.964021 Z M342.888582,235.415506 C344.130953,230.034209 353.862899,227.686086 364.625494,230.170827 C375.388089,232.655568 383.105755,239.032251 381.863385,244.413549 C380.621014,249.794846 370.889067,252.142969 360.126473,249.658228 C349.363878,247.173487 341.646212,240.796804 342.888582,235.415506 Z M254.923845,338.030516 C259.887747,335.609459 267.837094,341.694881 272.679208,351.622685 C277.521322,361.55049 277.422593,371.561221 272.45869,373.982278 C267.494788,376.403335 259.545441,370.317913 254.703327,360.390108 C249.861213,350.462303 249.959942,340.451573 254.923845,338.030516 Z M120.165498,333.257795 C125.1294,335.678852 125.228129,345.689582 120.386015,355.617387 C115.543901,365.545192 107.594555,371.630614 102.630652,369.209557 C97.6667496,366.7885 97.5680206,356.777769 102.410135,346.849964 C107.252249,336.922159 115.201595,330.836738 120.165498,333.257795 Z M39.6636876,224.691299 C40.9060579,230.072597 33.1883914,236.44928 22.4257968,238.934021 C11.6632023,241.418762 1.93125535,239.070639 0.68888498,233.689341 C-0.553485388,228.308044 7.16418118,221.93136 17.9267757,219.44662 C28.6893703,216.961879 38.4213172,219.310002 39.6636876,224.691299 Z M74.260688,94.3638744 C70.7850474,98.6559331 61.0086821,96.5002073 52.4245648,89.5489262 C43.8404476,82.5976451 39.699209,73.4831174 43.1748495,69.1910588 C46.6504901,64.8990002 56.4268554,67.0547259 65.0109726,74.006007 C73.5950899,80.9572881 77.7363285,90.0718158 74.260688,94.3638744 Z" id="path-3"></path>
        <filter x="-1.8%" y="-1.3%" width="103.7%" height="103.7%" filterUnits="objectBoundingBox" id="filter-4">
            <feOffset dx="0" dy="2" in="SourceAlpha" result="shadowOffsetOuter1"></feOffset>
            <feGaussianBlur stdDeviation="2" in="shadowOffsetOuter1" result="shadowBlurOuter1"></feGaussianBlur>
            <feColorMatrix values="0 0 0 0 0   0 0 0 0 0   0 0 0 0 0  0 0 0 0.5 0" type="matrix" in="shadowBlurOuter1"></feColorMatrix>
        </filter>
        <path d="M329.539905,150.069685 C327.032585,145.148792 332.978344,137.094451 342.82013,132.07981 C352.661917,127.065169 362.672846,126.989172 365.180166,131.910065 C367.687486,136.830958 361.741727,144.8853 351.89994,149.89994 C342.058154,154.914581 332.047225,154.990578 329.539905,150.069685 Z M425.631363,279.495027 C428.639321,274.863178 438.587465,275.985186 447.851165,282.001102 C457.114864,288.017019 462.186144,296.648739 459.178186,301.280589 C456.170227,305.912438 446.222083,304.79043 436.958384,298.774514 C427.694685,292.758597 422.623405,284.126877 425.631363,279.495027 Z M361.591458,427.425342 C367.106737,427.714385 371.109121,436.890735 370.531034,447.921292 C369.952947,458.951849 365.013298,467.659567 359.49802,467.370523 C353.982741,467.08148 349.980357,457.90513 350.558444,446.874573 C351.136531,435.844016 356.076179,427.136298 361.591458,427.425342 Z M201.460095,445.930315 C203.967415,450.851208 198.021656,458.905549 188.17987,463.92019 C178.338083,468.934831 168.327154,469.010828 165.819834,464.089935 C163.312514,459.169042 169.258273,451.1147 179.10006,446.10006 C188.941846,441.085419 198.952775,441.009422 201.460095,445.930315 Z M105.368637,316.504973 C102.360679,321.136822 92.4125345,320.014814 83.1488352,313.998898 C73.8851359,307.982981 68.8138559,299.351261 71.8218142,294.719411 C74.8297725,290.087562 84.7779166,291.20957 94.0416159,297.225486 C103.305315,303.241403 108.376595,311.873123 105.368637,316.504973 Z M169.408542,168.574658 C163.893263,168.285615 159.890879,159.109265 160.468966,148.078708 C161.047053,137.048151 165.986702,128.340433 171.50198,128.629477 C177.017259,128.91852 181.019643,138.09487 180.441556,149.125427 C179.863469,160.155984 174.923821,168.863702 169.408542,168.574658 Z" id="path-5"></path>
        <filter x="-1.8%" y="-1.5%" width="103.6%" height="104.1%" filterUnits="objectBoundingBox" id="filter-6">
            <feOffset dx="0" dy="2" in="SourceAlpha" result="shadowOffsetOuter1"></feOffset>
            <feGaussianBlur stdDeviation="2" in="shadowOffsetOuter1" result="shadowBlurOuter1"></feGaussianBlur>
            <feColorMatrix values="0 0 0 0 0   0 0 0 0 0   0 0 0 0 0  0 0 0 0.5 0" type="matrix" in="shadowBlurOuter1"></feColorMatrix>
        </filter>
        <path d="M254.053193,106.133733 C250.721317,99.5945579 259.471615,88.4587714 273.597531,81.2612576 C287.723448,74.0637438 301.875785,73.5300547 305.207661,80.0692297 C308.539537,86.6084046 299.789238,97.7441911 285.663322,104.941705 C271.537406,112.139219 257.385069,112.672908 254.053193,106.133733 Z M374.492822,138.88575 C376.760725,131.905863 390.822311,130.219068 405.900253,135.118188 C420.978195,140.017309 431.362783,149.647147 429.094881,156.627034 C426.826978,163.606921 412.765392,165.293716 397.68745,160.394595 C382.609508,155.495475 372.22492,145.865637 374.492822,138.88575 Z M439.363347,254.127784 C445.902522,250.795908 457.038309,259.546207 464.235823,273.672123 C471.433336,287.798039 471.967025,301.950376 465.42785,305.282252 C458.888676,308.614128 447.752889,299.86383 440.555375,285.737913 C433.357861,271.611997 432.824172,257.45966 439.363347,254.127784 Z M410.664494,384.352615 C417.644381,386.620518 419.331175,400.682104 414.432055,415.760046 C409.532935,430.837988 399.903097,441.222576 392.923209,438.954673 C385.943322,436.686771 384.256528,422.625185 389.155648,407.547243 C394.054768,392.469301 403.684606,382.084712 410.664494,384.352615 Z M305.207661,453.276303 C308.539537,459.815478 299.789238,470.951265 285.663322,478.148779 C271.537406,485.346292 257.385069,485.879981 254.053193,479.340806 C250.721317,472.801632 259.471615,461.665845 273.597531,454.468331 C287.723448,447.270817 301.875785,446.737128 305.207661,453.276303 Z M184.768031,420.524286 C182.500128,427.504174 168.438543,429.190968 153.360601,424.291848 C138.282659,419.392728 127.89807,409.762889 130.165973,402.783002 C132.433876,395.803115 146.495461,394.11632 161.573403,399.015441 C176.651345,403.914561 187.035934,413.544399 184.768031,420.524286 Z M119.897506,305.282252 C113.358331,308.614128 102.222545,299.86383 95.0250307,285.737913 C87.8275169,271.611997 87.2938278,257.45966 93.8330028,254.127784 C100.372178,250.795908 111.507964,259.546207 118.705478,273.672123 C125.902992,287.798039 126.436681,301.950376 119.897506,305.282252 Z M148.59636,175.057421 C141.616473,172.789518 139.929678,158.727933 144.828798,143.649991 C149.727919,128.572049 159.357757,118.18746 166.337644,120.455363 C173.317531,122.723266 175.004326,136.784851 170.105205,151.862793 C165.206085,166.940735 155.576247,177.325324 148.59636,175.057421 Z" id="path-7"></path>
        <filter x="-1.8%" y="-1.2%" width="103.7%" height="103.4%" filterUnits="objectBoundingBox" id="filter-8">
            <feOffset dx="0" dy="2" in="SourceAlpha" result="shadowOffsetOuter1"></feOffset>
            <feGaussianBlur stdDeviation="2" in="shadowOffsetOuter1" result="shadowBlurOuter1"></feGaussianBlur>
            <feColorMatrix values="0 0 0 0 0   0 0 0 0 0   0 0 0 0 0  0 0 0 0.5 0" type="matrix" in="shadowBlurOuter1"></feColorMatrix>
        </filter>
        <path d="M384.963571,108.986355 C388.287303,113.397097 383.830495,122.361545 375.009011,129.009011 C366.187526,135.656476 356.341883,137.469698 353.01815,133.058956 C349.694418,128.648214 354.151226,119.683766 362.97271,113.0363 C371.794194,106.388835 381.639838,104.575613 384.963571,108.986355 Z M440.268974,160.006287 C441.791277,165.315189 434.417917,172.087045 423.800113,175.131651 C413.18231,178.176257 403.340809,176.340683 401.818506,171.031781 C400.296203,165.722879 407.669563,158.951023 418.287366,155.906417 C428.90517,152.861811 438.746671,154.697385 440.268974,160.006287 Z M473.431553,227.557455 C472.950205,233.059286 463.639764,236.738983 452.636101,235.776287 C441.632438,234.813591 433.102417,229.573057 433.583765,224.071225 C434.065112,218.569394 443.375553,214.889697 454.379216,215.852393 C465.382879,216.815089 473.9129,222.055624 473.431553,227.557455 Z M479.818315,302.845169 C477.310995,307.766062 467.300066,307.690065 457.458279,302.675424 C447.616493,297.660783 441.670734,289.606442 444.178054,284.685549 C446.685374,279.764656 456.696303,279.840653 466.538089,284.855293 C476.379876,289.869934 482.325635,297.924276 479.818315,302.845169 Z M458.751237,375.057825 C454.646961,378.753331 445.328189,375.094785 437.937176,366.886234 C430.546164,358.677683 427.881737,349.027538 431.986013,345.332032 C436.090288,341.636525 445.40906,345.295071 452.800073,353.503622 C460.191086,361.712173 462.855512,371.362318 458.751237,375.057825 Z M413.032253,434.802976 C407.87623,436.782187 400.487513,430.027091 396.529089,419.715047 C392.570666,409.403002 393.541512,399.43897 398.697535,397.459759 C403.853557,395.480547 411.242275,402.235643 415.200698,412.547688 C419.159121,422.859732 418.188275,432.823764 413.032253,434.802976 Z M348.822189,474.020149 C343.299342,474.020149 338.822189,465.065844 338.822189,454.020149 C338.822189,442.974454 343.299342,434.020149 348.822189,434.020149 C354.345037,434.020149 358.822189,442.974454 358.822189,454.020149 C358.822189,465.065844 354.345037,474.020149 348.822189,474.020149 Z M274.777086,487.415794 C269.621063,485.436582 268.650217,475.47255 272.60864,465.160506 C276.567063,454.848461 283.955781,448.093365 289.111804,450.072577 C294.267826,452.051788 295.238672,462.01582 291.280249,472.327865 C287.321826,482.639909 279.933108,489.395005 274.777086,487.415794 Z M200.881258,473.177808 C196.776982,469.482302 199.441409,459.832157 206.832422,451.623605 C214.223434,443.415054 223.542206,439.756509 227.646482,443.452015 C231.750758,447.147521 229.086331,456.797667 221.695318,465.006218 C214.304306,473.214769 204.985533,476.873314 200.881258,473.177808 Z M136.945221,432.908283 C134.524164,427.944381 140.609585,419.995034 150.53739,415.15292 C160.465195,410.310806 170.475925,410.409535 172.896982,415.373437 C175.318039,420.33734 169.232618,428.286687 159.304813,433.1288 C149.377008,437.970914 139.366278,437.872185 136.945221,432.908283 Z M92.0068153,372.58054 C91.5254675,367.078709 100.055489,361.838174 111.059152,360.875479 C122.062815,359.912783 131.373255,363.592479 131.854603,369.094311 C132.335951,374.596142 123.80593,379.836677 112.802267,380.799372 C101.798604,381.762068 92.4881632,378.082372 92.0068153,372.58054 Z M71.87355,300.090785 C73.3958531,294.781883 83.237354,292.946309 93.8551575,295.990915 C104.472961,299.035521 111.846321,305.807378 110.324018,311.116279 C108.801715,316.425181 98.9602139,318.260755 88.3424104,315.216149 C77.7246069,312.171543 70.351247,305.399687 71.87355,300.090785 Z M79.2660822,225.213078 C82.5898148,220.802336 92.4354584,222.615558 101.256943,229.263024 C110.078427,235.910489 114.535235,244.874937 111.211503,249.285679 C107.88777,253.696421 98.0421264,251.883199 89.2206422,245.235734 C80.3991579,238.588269 75.9423496,229.62382 79.2660822,225.213078 Z M113.193218,158.045611 C117.876859,155.118947 126.418758,160.340099 132.272085,169.70738 C138.125411,179.07466 139.073629,189.040871 134.389989,191.967534 C129.706349,194.894198 121.164449,189.673046 115.311123,180.305765 C109.457796,170.938485 108.509578,160.972274 113.193218,158.045611 Z M169.084822,107.648806 C174.506199,106.594997 180.609656,114.530505 182.717274,125.373259 C184.824892,136.216014 182.138559,145.860084 176.717182,146.913893 C171.295805,147.967702 165.192348,140.032194 163.08473,129.189439 C160.977112,118.346685 163.663445,108.702615 169.084822,107.648806 Z M239.750671,80.8867213 C245.172049,81.9405303 247.858381,91.5846004 245.750763,102.427355 C243.643145,113.270109 237.539689,121.205618 232.118312,120.151809 C226.696934,119.098 224.010602,109.453929 226.11822,98.611175 C228.225838,87.7684205 234.329294,79.8329123 239.750671,80.8867213 Z M314.977435,81.3737253 C319.661076,84.3003886 318.712858,94.2665993 312.859531,103.63388 C307.006204,113.001161 298.464305,118.222312 293.780665,115.295649 C289.097024,112.368986 290.045242,102.402775 295.898569,93.0354946 C301.751896,83.668214 310.293795,78.4470621 314.977435,81.3737253 Z" id="path-9"></path>
        <filter x="-1.7%" y="-1.2%" width="103.4%" height="103.4%" filterUnits="objectBoundingBox" id="filter-10">
            <feOffset dx="0" dy="2" in="SourceAlpha" result="shadowOffsetOuter1"></feOffset>
            <feGaussianBlur stdDeviation="2" in="shadowOffsetOuter1" result="shadowBlurOuter1"></feGaussianBlur>
            <feColorMatrix values="0 0 0 0 0   0 0 0 0 0   0 0 0 0 0  0 0 0 0.5 0" type="matrix" in="shadowBlurOuter1"></feColorMatrix>
        </filter>
        <path d="M260.431448,93.6913061 C264.535724,89.9957998 273.854496,93.6543454 281.245509,101.862897 C288.636521,110.071448 291.300948,119.721593 287.196673,123.417099 C283.092397,127.112605 273.773625,123.45406 266.382612,115.245509 C258.9916,107.036958 256.327173,97.3868124 260.431448,93.6913061 Z M335.033157,105.031409 C340.255112,103.233346 347.40358,110.24219 350.999706,120.686099 C354.595833,131.130009 353.277838,141.054089 348.055883,142.852153 C342.833929,144.650216 335.685461,137.641372 332.089335,127.197463 C328.493208,116.753553 329.811202,106.829473 335.033157,105.031409 Z M399.277454,144.104784 C404.792733,144.393828 408.795117,153.570177 408.21703,164.600734 C407.638943,175.631292 402.699294,184.339009 397.184016,184.049965 C391.668737,183.760922 387.666352,174.584572 388.244439,163.554015 C388.822526,152.523458 393.762175,143.81574 399.277454,144.104784 Z M444.010164,204.874822 C448.974067,207.295879 449.072796,217.30661 444.230682,227.234415 C439.388568,237.16222 431.439221,243.247641 426.475318,240.826584 C421.511416,238.405527 421.412687,228.394797 426.254801,218.466992 C431.096915,208.539187 439.046262,202.453765 444.010164,204.874822 Z M461.808694,277.931448 C465.5042,282.035724 461.845655,291.354496 453.637103,298.745509 C445.428552,306.136521 435.778407,308.800948 432.082901,304.696673 C428.387395,300.592397 432.04594,291.273625 440.254491,283.882612 C448.463042,276.4916 458.113188,273.827173 461.808694,277.931448 Z M450.468591,352.533157 C452.266654,357.755112 445.25781,364.90358 434.813901,368.499706 C424.369991,372.095833 414.445911,370.777838 412.647847,365.555883 C410.849784,360.333929 417.858628,353.185461 428.302537,349.589335 C438.746447,345.993208 448.670527,347.311202 450.468591,352.533157 Z M411.395216,416.777454 C411.106172,422.292733 401.929823,426.295117 390.899266,425.71703 C379.868708,425.138943 371.160991,420.199294 371.450035,414.684016 C371.739078,409.168737 380.915428,405.166352 391.945985,405.744439 C402.976542,406.322526 411.68426,411.262175 411.395216,416.777454 Z M350.625178,461.510164 C348.204121,466.474067 338.19339,466.572796 328.265585,461.730682 C318.33778,456.888568 312.252359,448.939221 314.673416,443.975318 C317.094473,439.011416 327.105203,438.912687 337.033008,443.754801 C346.960813,448.596915 353.046235,456.546262 350.625178,461.510164 Z M277.568552,479.308694 C273.464276,483.0042 264.145504,479.345655 256.754491,471.137103 C249.363479,462.928552 246.699052,453.278407 250.803327,449.582901 C254.907603,445.887395 264.226375,449.54594 271.617388,457.754491 C279.0084,465.963042 281.672827,475.613188 277.568552,479.308694 Z M202.966843,467.968591 C197.744888,469.766654 190.59642,462.75781 187.000294,452.313901 C183.404167,441.869991 184.722162,431.945911 189.944117,430.147847 C195.166071,428.349784 202.314539,435.358628 205.910665,445.802537 C209.506792,456.246447 208.188798,466.170527 202.966843,467.968591 Z M138.722546,428.895216 C133.207267,428.606172 129.204883,419.429823 129.78297,408.399266 C130.361057,397.368708 135.300706,388.660991 140.815984,388.950035 C146.331263,389.239078 150.333648,398.415428 149.755561,409.445985 C149.177474,420.476542 144.237825,429.18426 138.722546,428.895216 Z M93.9898358,368.125178 C89.0259333,365.704121 88.9272043,355.69339 93.7693182,345.765585 C98.6114322,335.83778 106.560779,329.752359 111.524682,332.173416 C116.488584,334.594473 116.587313,344.605203 111.745199,354.533008 C106.903085,364.460813 98.9537382,370.546235 93.9898358,368.125178 Z M76.1913061,295.068552 C72.4957998,290.964276 76.1543454,281.645504 84.3628965,274.254491 C92.5714476,266.863479 102.221593,264.199052 105.917099,268.303327 C109.612605,272.407603 105.95406,281.726375 97.7455086,289.117388 C89.5369576,296.5084 79.8868124,299.172827 76.1913061,295.068552 Z M87.5314095,220.466843 C85.7333462,215.244888 92.7421897,208.09642 103.186099,204.500294 C113.630009,200.904167 123.554089,202.222162 125.352153,207.444117 C127.150216,212.666071 120.141372,219.814539 109.697463,223.410665 C99.2535528,227.006792 89.3294728,225.688798 87.5314095,220.466843 Z M126.604784,156.222546 C126.893828,150.707267 136.070177,146.704883 147.100734,147.28297 C158.131292,147.861057 166.839009,152.800706 166.549965,158.315984 C166.260922,163.831263 157.084572,167.833648 146.054015,167.255561 C135.023458,166.677474 126.31574,161.737825 126.604784,156.222546 Z M187.374822,111.489836 C189.795879,106.525933 199.80661,106.427204 209.734415,111.269318 C219.66222,116.111432 225.747641,124.060779 223.326584,129.024682 C220.905527,133.988584 210.894797,134.087313 200.966992,129.245199 C191.039187,124.403085 184.953765,116.453738 187.374822,111.489836 Z" id="path-11"></path>
        <filter x="-1.8%" y="-1.3%" width="103.6%" height="103.6%" filterUnits="objectBoundingBox" id="filter-12">
            <feOffset dx="0" dy="2" in="SourceAlpha" result="shadowOffsetOuter1"></feOffset>
            <feGaussianBlur stdDeviation="2" in="shadowOffsetOuter1" result="shadowBlurOuter1"></feGaussianBlur>
            <feColorMatrix values="0 0 0 0 0   0 0 0 0 0   0 0 0 0 0  0 0 0 0.5 0" type="matrix" in="shadowBlurOuter1"></feColorMatrix>
        </filter>
        <path d="M366.007906,109.396926 C367.896831,114.586705 361.013813,121.856405 350.634255,125.634255 C340.254697,129.412105 330.309127,128.267511 328.420201,123.077732 C326.531276,117.887953 333.414294,110.618253 343.793852,106.840403 C354.17341,103.062553 364.118981,104.207147 366.007906,109.396926 Z M421.333795,152.580378 C421.237408,158.102384 412.20633,162.42258 401.162317,162.229806 C390.118305,162.037033 381.243501,157.404288 381.339888,151.882281 C381.436275,146.360275 390.467353,142.040079 401.511366,142.232853 C412.555378,142.425627 421.430182,147.058371 421.333795,152.580378 Z M457.345982,212.838273 C455.277087,217.958968 445.297629,218.75577 435.056239,214.61798 C424.814849,210.48019 418.189733,202.974705 420.258628,197.854009 C422.327523,192.733314 432.306981,191.936513 442.548371,196.074303 C452.789761,200.212093 459.414878,207.717578 457.345982,212.838273 Z M468.937323,282.301482 C465.100831,286.274286 455.549551,283.274697 447.603943,275.601713 C439.658335,267.928728 436.327239,258.487952 440.163731,254.515148 C444.000223,250.542344 453.551502,253.541932 461.49711,261.214917 C469.442719,268.887901 472.773815,278.328678 468.937323,282.301482 Z M454.906987,351.02711 C449.901587,353.361166 442.059656,347.137936 437.391543,337.127137 C432.723431,327.116337 432.996856,317.108855 438.002256,314.774799 C443.007656,312.440742 450.849587,318.663972 455.517699,328.674772 C460.185812,338.685571 459.912386,348.693054 454.906987,351.02711 Z M417.003115,410.065252 C411.493721,410.450506 406.402854,401.830324 405.632345,390.811536 C404.861836,379.792748 408.703462,370.547944 414.212856,370.16269 C419.72225,369.777436 424.813117,378.397618 425.583626,389.416406 C426.354135,400.435195 422.512509,409.679998 417.003115,410.065252 Z M360.329195,451.446525 C355.04767,449.831801 353.384133,439.959764 356.613582,429.396713 C359.84303,418.833663 366.742538,411.579611 372.024063,413.194335 C377.305589,414.80906 378.969125,424.681097 375.739677,435.244147 C372.510228,445.807198 365.61072,453.06125 360.329195,451.446525 Z M292.523301,469.580331 C288.171238,466.180127 290.156014,456.367628 296.956423,447.663501 C303.756832,438.959375 312.797697,434.659696 317.14976,438.059901 C321.501823,441.460105 319.517047,451.272604 312.716638,459.976731 C305.916229,468.680857 296.875364,472.980535 292.523301,469.580331 Z M222.728663,462.010138 C219.884186,457.276133 225.25362,448.826657 234.721628,443.137703 C244.189637,437.44875 254.170879,436.67461 257.015355,441.408615 C259.859832,446.142619 254.490399,454.592096 245.02239,460.281049 C235.554381,465.970003 225.57314,466.744142 222.728663,462.010138 Z M160.303118,429.401967 C159.439154,423.947115 167.582836,418.124322 178.49254,416.396395 C189.402244,414.668467 198.946688,417.689737 199.810651,423.144589 C200.674615,428.599441 192.530933,434.422234 181.621229,436.150162 C170.711525,437.878089 161.167082,434.85682 160.303118,429.401967 Z M113.906568,376.788874 C115.054833,371.386714 124.744317,368.869103 135.548637,371.165632 C146.352957,373.462161 154.180737,379.703182 153.032473,385.105342 C151.884208,390.507502 142.194724,393.025113 131.390404,390.728584 C120.586084,388.432055 112.758304,382.191034 113.906568,376.788874 Z M89.6283871,310.959635 C92.6363454,306.327785 102.58449,307.449793 111.848189,313.46571 C121.111888,319.481627 126.183168,328.113347 123.17521,332.745196 C120.167251,337.377046 110.219107,336.255038 100.955408,330.239121 C91.6917088,324.223205 86.6204288,315.591485 89.6283871,310.959635 Z M90.7536594,240.789927 C95.2217369,237.543679 104.107038,242.15626 110.599534,251.092415 C117.092031,260.02857 118.733147,269.904359 114.265069,273.150607 C109.796992,276.396856 100.911691,271.784275 94.4191945,262.84812 C87.9266979,253.911965 86.2855819,244.036176 90.7536594,240.789927 Z M117.141532,175.74484 C122.476193,174.315422 129.118335,181.805844 131.977171,192.475166 C134.836008,203.144488 132.828955,212.952455 127.494294,214.381873 C122.159633,215.811291 115.517491,208.320869 112.658655,197.651547 C109.799819,186.982225 111.806871,177.174258 117.141532,175.74484 Z M165.24276,124.602117 C170.735352,125.179411 174.251999,134.552654 173.097409,145.537839 C171.94282,156.523025 166.554214,164.960287 161.061621,164.382992 C155.569028,163.805698 152.052382,154.432455 153.206971,143.44727 C154.361561,132.462084 159.750167,124.024822 165.24276,124.602117 Z M228.886732,94.4287764 C233.763117,97.0215962 233.512416,107.029674 228.326777,116.782444 C223.141137,126.535214 214.984254,132.3395 210.107869,129.74668 C205.231484,127.15386 205.482185,117.145782 210.667825,107.393013 C215.853464,97.6402428 224.010347,91.8359565 228.886732,94.4287764 Z M298.837716,89.1041487 C302.46103,93.2722946 298.640407,102.525797 290.304115,109.772425 C281.967823,117.019053 272.272647,119.514656 268.649333,115.34651 C265.026019,111.178364 268.846643,101.924861 277.182934,94.6782334 C285.519226,87.4316055 295.214402,84.9360027 298.837716,89.1041487 Z" id="path-13"></path>
        <filter x="-1.8%" y="-1.3%" width="103.7%" height="103.6%" filterUnits="objectBoundingBox" id="filter-14">
            <feOffset dx="0" dy="2" in="SourceAlpha" result="shadowOffsetOuter1"></feOffset>
            <feGaussianBlur stdDeviation="2" in="shadowOffsetOuter1" result="shadowBlurOuter1"></feGaussianBlur>
            <feColorMatrix values="0 0 0 0 0   0 0 0 0 0   0 0 0 0 0  0 0 0 0.5 0" type="matrix" in="shadowBlurOuter1"></feColorMatrix>
        </filter>
        <path d="M288.434455,96.8769787 C292.53873,93.1814724 301.857502,96.8400181 309.248515,105.048569 C316.639528,113.25712 319.303954,122.907265 315.199679,126.602772 C311.095403,130.298278 301.776631,126.639732 294.385618,118.431181 C286.994606,110.22263 284.330179,100.572485 288.434455,96.8769787 Z M376.21669,122.372759 C381.575485,121.036661 388.08589,128.641864 390.758085,139.359454 C393.430281,150.077045 391.252361,159.84849 385.893566,161.184588 C380.53477,162.520686 374.024366,154.915483 371.352171,144.197892 C368.679975,133.480302 370.857895,123.708857 376.21669,122.372759 Z M441.756242,185.71307 C447.137539,186.95544 449.485662,196.687387 447.000922,207.449982 C444.516181,218.212576 438.139497,225.930243 432.7582,224.687873 C427.376903,223.445502 425.02878,213.713555 427.51352,202.950961 C429.998261,192.188366 436.374945,184.4707 441.756242,185.71307 Z M470.669305,272.381908 C474.837451,276.005222 472.341848,285.700398 465.09522,294.03669 C457.848592,302.372981 448.595089,306.193605 444.426943,302.570291 C440.258798,298.946977 442.7544,289.251801 450.001028,280.915509 C457.247656,272.579217 466.501159,268.758594 470.669305,272.381908 Z M455.951044,362.589844 C457.930255,367.745866 451.17516,375.134584 440.863115,379.093007 C430.55107,383.05143 420.587038,382.080584 418.607827,376.924562 C416.628615,371.768539 423.383711,364.379822 433.695756,360.421399 C444.007801,356.462975 453.971832,357.433822 455.951044,362.589844 Z M400.984905,435.284742 C400.407611,440.777334 391.034368,444.293981 380.049183,443.139391 C369.063997,441.984802 360.626735,436.596196 361.20403,431.103603 C361.781324,425.61101 371.154567,422.094364 382.139752,423.248953 C393.124938,424.403543 401.5622,429.792149 400.984905,435.284742 Z M318.445271,474.438221 C315.356934,479.016869 305.429887,477.721413 296.27259,471.544739 C287.115294,465.368064 282.195431,456.649153 285.283768,452.070505 C288.372105,447.491857 298.299152,448.787313 307.456449,454.963987 C316.613745,461.140661 321.533608,469.859573 318.445271,474.438221 Z M227.129649,470.710299 C222.253264,473.303119 214.096381,467.498832 208.910742,457.746063 C203.725102,447.993293 203.474401,437.985215 208.350786,435.392395 C213.227171,432.799575 221.384054,438.603862 226.569693,448.356631 C231.755333,458.109401 232.006034,468.117479 227.129649,470.710299 Z M147.993425,424.922513 C142.470578,424.922513 137.993425,415.968208 137.993425,404.922513 C137.993425,393.876818 142.470578,384.922513 147.993425,384.922513 C153.516273,384.922513 157.993425,393.876818 157.993425,404.922513 C157.993425,415.968208 153.516273,424.922513 147.993425,424.922513 Z M99.5224825,347.713726 C94.6015893,345.206406 94.6775867,335.195477 99.6922272,325.353691 C104.706868,315.511904 112.761209,309.566145 117.682102,312.073465 C122.602996,314.580785 122.526998,324.591714 117.512358,334.433501 C112.497717,344.275287 104.443376,350.221046 99.5224825,347.713726 Z M92.207812,256.624345 C89.0400368,252.100294 93.8069849,243.296847 102.855089,236.961296 C111.903192,230.625746 121.806119,229.157236 124.973894,233.681288 C128.141669,238.20534 123.374721,247.008787 114.326617,253.344337 C105.278514,259.679888 95.3755872,261.148397 92.207812,256.624345 Z M128.110804,172.550654 C127.437738,167.068973 135.779672,161.533937 146.743034,160.187806 C157.706396,158.841674 167.139584,162.194199 167.81265,167.67588 C168.485716,173.157561 160.143783,178.692597 149.180421,180.038729 C138.217059,181.38486 128.78387,178.032335 128.110804,172.550654 Z M198.90167,115.125201 C200.790595,109.935422 210.736166,108.790827 221.115724,112.568677 C231.495282,116.346528 238.3783,123.616227 236.489375,128.806006 C234.60045,133.995785 224.654879,135.14038 214.275321,131.36253 C203.895763,127.58468 197.012745,120.31498 198.90167,115.125201 Z" id="path-15"></path>
        <filter x="-1.8%" y="-1.3%" width="103.7%" height="103.7%" filterUnits="objectBoundingBox" id="filter-16">
            <feOffset dx="0" dy="2" in="SourceAlpha" result="shadowOffsetOuter1"></feOffset>
            <feGaussianBlur stdDeviation="2" in="shadowOffsetOuter1" result="shadowBlurOuter1"></feGaussianBlur>
            <feColorMatrix values="0 0 0 0 0   0 0 0 0 0   0 0 0 0 0  0 0 0 0.5 0" type="matrix" in="shadowBlurOuter1"></feColorMatrix>
        </filter>
        <path d="M311.372219,119.687865 C311.179474,114.168382 319.972074,109.381456 331.011041,108.995967 C342.050007,108.610478 351.155107,112.772402 351.347852,118.291885 C351.540597,123.811368 342.747997,128.598294 331.70903,128.983784 C320.670064,129.369273 311.564964,125.207348 311.372219,119.687865 Z M383.663205,153.109384 C386.084262,148.145482 396.094993,148.046753 406.022798,152.888866 C415.950603,157.73098 422.036024,165.680327 419.614967,170.64423 C417.19391,175.608132 407.18318,175.706861 397.255375,170.864747 C387.32757,166.022633 381.242148,158.073286 383.663205,153.109384 Z M431.901244,216.538892 C436.311986,213.21516 445.276434,217.671968 451.9239,226.493452 C458.571365,235.314937 460.384587,245.16058 455.973845,248.484313 C451.563103,251.808045 442.598655,247.351237 435.951189,238.529753 C429.303724,229.708268 427.490502,219.862625 431.901244,216.538892 Z M445.436654,294.958915 C450.891506,294.094951 456.714299,302.238633 458.442226,313.148337 C460.170154,324.058041 457.148884,333.602485 451.694032,334.466448 C446.23918,335.330412 440.416387,327.18673 438.688459,316.277026 C436.960532,305.367322 439.981801,295.822878 445.436654,294.958915 Z M420.973672,370.738396 C426.195627,372.536459 427.513621,382.460539 423.917494,392.904449 C420.321368,403.348359 413.1729,410.357202 407.950946,408.559139 C402.728991,406.761076 401.410996,396.836996 405.007123,386.393086 C408.603249,375.949176 415.751717,368.940333 420.973672,370.738396 Z M363.827832,426.259738 C367.664324,430.232542 364.333228,439.673319 356.38762,447.346304 C348.442012,455.019288 338.890732,458.018877 335.05424,454.046073 C331.217748,450.073269 334.548844,440.632492 342.494452,432.959508 C350.44006,425.286523 359.99134,422.286934 363.827832,426.259738 Z M287.622349,449.14246 C289.144652,454.451362 281.771292,461.223218 271.153488,464.267824 C260.535685,467.312431 250.694184,465.476856 249.171881,460.167955 C247.649578,454.859053 255.022938,448.087197 265.640741,445.04259 C276.258545,441.997984 286.100046,443.833559 287.622349,449.14246 Z M209.459683,433.991604 C208.311418,439.393764 198.621934,441.911375 187.817614,439.614846 C177.013294,437.318317 169.185514,431.077296 170.333779,425.675136 C171.482043,420.272976 181.171528,417.755365 191.975848,420.051894 C202.780168,422.348423 210.607948,428.589444 209.459683,433.991604 Z M147.244265,384.229529 C143.694247,388.460275 133.956993,386.134257 125.4955,379.034221 C117.034007,371.934185 113.052469,362.748771 116.602487,358.518024 C120.152505,354.287278 129.889759,356.613296 138.351252,363.713332 C146.812745,370.813368 150.794283,379.998782 147.244265,384.229529 Z M115.57267,311.078913 C110.488862,313.236862 102.868896,306.743743 98.5529988,296.576128 C94.237102,286.408512 94.8596169,276.416668 99.9434248,274.258719 C105.027233,272.100771 112.647199,278.593889 116.963096,288.761505 C121.278993,298.929121 120.656478,308.920965 115.57267,311.078913 Z M121.193615,231.672741 C115.691784,231.191393 112.012087,221.880952 112.974783,210.877289 C113.937479,199.873626 119.178014,191.343605 124.679845,191.824953 C130.181676,192.306301 133.861373,201.616741 132.898677,212.620404 C131.935981,223.624067 126.695447,232.154088 121.193615,231.672741 Z M163.089391,163.925069 C158.457541,160.917111 159.579549,150.968966 165.595466,141.705267 C171.611382,132.441568 180.243102,127.370288 184.874952,130.378246 C189.506802,133.386205 188.384794,143.334349 182.368877,152.598048 C176.35296,161.861747 167.72124,166.933027 163.089391,163.925069 Z M231.879967,123.675687 C229.118544,118.89276 234.634623,110.53828 244.200475,105.015433 C253.766328,99.492585 263.75956,98.8927603 266.520984,103.675687 C269.282407,108.458613 263.766328,116.813093 254.200475,122.335941 C244.634623,127.858788 234.641391,128.458613 231.879967,123.675687 Z" id="path-17"></path>
        <filter x="-1.9%" y="-1.4%" width="103.9%" height="103.8%" filterUnits="objectBoundingBox" id="filter-18">
            <feOffset dx="0" dy="2" in="SourceAlpha" result="shadowOffsetOuter1"></feOffset>
            <feGaussianBlur stdDeviation="2" in="shadowOffsetOuter1" result="shadowBlurOuter1"></feGaussianBlur>
            <feColorMatrix values="0 0 0 0 0   0 0 0 0 0   0 0 0 0 0  0 0 0 0.5 0" type="matrix" in="shadowBlurOuter1"></feColorMatrix>
        </filter>
    </defs>
    <g id="Page-1" stroke="none" stroke-width="1" fill="none" fill-rule="evenodd">
        <g id="o" transform="translate(-193.000000, -11.000000)">
            <g id="bhack-background" transform="translate(142.000000, 27.000000)">
                <g id="incricred">
                    <use fill="#131217" fill-rule="evenodd" xlink:href="#path-1"></use>
                    <use fill="black" fill-opacity="1" filter="url(#filter-2)" xlink:href="#path-1"></use>
                    <path stroke="#09080D" stroke-width="15.125" d="M367,615.5625 C197.115336,615.5625 59.4375,476.04896 59.4375,304 C59.4375,161.159996 155.134511,37.6181783 289.766823,2.34448101 C314.789808,-4.2115468 340.680235,-7.5625 367,-7.5625 C536.884664,-7.5625 674.5625,131.95104 674.5625,304 C674.5625,476.04896 536.884664,615.5625 367,615.5625 Z"></path>
                    <use stroke="#AA4222" stroke-width="2" xlink:href="#path-1"></use>
                    <path stroke="#8B3B14" stroke-width="1" d="M367,607.5 C532.407789,607.5 666.5,471.619893 666.5,304 C666.5,136.380107 532.407789,0.5 367,0.5 C341.371438,0.5 316.167685,3.76207812 291.81023,10.143737 C160.718308,44.4898514 67.5,164.831741 67.5,304 C67.5,471.619893 201.592211,607.5 367,607.5 Z"></path>
                </g>
                <g id="Group-2" transform="translate(0.000000, 21.000000)" opacity="0.07">
                    <g id="milk1" transform="translate(361.000000, 273.500000) rotate(36.000000) translate(-361.000000, -273.500000) translate(170.000000, 86.000000)">
                        <g id="Oval-2">
                            <use fill="black" fill-opacity="1" filter="url(#filter-4)" xlink:href="#path-3"></use>
                            <use fill="#D8D8D8" fill-rule="evenodd" xlink:href="#path-3"></use>
                        </g>
                    </g>
                    <g id="Group" transform="translate(87.000000, 0.000000)">
                        <g id="Oval-2-Copy" transform="translate(265.500000, 298.000000) rotate(12.000000) translate(-265.500000, -298.000000) ">
                            <use fill="black" fill-opacity="1" filter="url(#filter-6)" xlink:href="#path-5"></use>
                            <use fill="#D8D8D8" fill-rule="evenodd" xlink:href="#path-5"></use>
                        </g>
                        <g id="Oval-2-Copy-2" transform="translate(279.630427, 279.705018) rotate(-46.000000) translate(-279.630427, -279.705018) ">
                            <use fill="black" fill-opacity="1" filter="url(#filter-8)" xlink:href="#path-7"></use>
                            <use fill="#D8D8D8" fill-rule="evenodd" xlink:href="#path-7"></use>
                        </g>
                        <g id="Oval-2-Copy-3">
                            <use fill="black" fill-opacity="1" filter="url(#filter-10)" xlink:href="#path-9"></use>
                            <use fill="#D8D8D8" fill-rule="evenodd" xlink:href="#path-9"></use>
                        </g>
                        <g id="Oval-2-Copy-8">
                            <use fill="black" fill-opacity="1" filter="url(#filter-12)" xlink:href="#path-11"></use>
                            <use fill="#D8D8D8" fill-rule="evenodd" xlink:href="#path-11"></use>
                        </g>
                        <g id="Oval-2-Copy-7">
                            <use fill="black" fill-opacity="1" filter="url(#filter-14)" xlink:href="#path-13"></use>
                            <use fill="#D8D8D8" fill-rule="evenodd" xlink:href="#path-13"></use>
                        </g>
                        <g id="Oval-2-Copy-5">
                            <use fill="black" fill-opacity="1" filter="url(#filter-16)" xlink:href="#path-15"></use>
                            <use fill="#D8D8D8" fill-rule="evenodd" xlink:href="#path-15"></use>
                        </g>
                        <g id="Oval-2-Copy-4">
                            <use fill="black" fill-opacity="1" filter="url(#filter-18)" xlink:href="#path-17"></use>
                            <use fill="#D8D8D8" fill-rule="evenodd" xlink:href="#path-17"></use>
                        </g>
                    </g>
                </g>
            </g>
        </g>
    </g>
</svg>